<svg xmlns="http://www.w3.org/2000/svg" viewBox="0 0 960 680"><title>GDB Orientation digital sticker sheet</title><rect width="960" height="680" fill="#F3E3C2"/><rect x="18" y="18" width="924" height="644" fill="none" stroke="#731220" stroke-width="3"/><text x="45" y="56" fill="#731220" font-family="Georgia,serif" font-size="24" font-weight="bold">GDB UNIVERSITY / ORIENTATION</text><text x="45" y="80" fill="#731220" font-family="monospace" font-size="12" letter-spacing="3">GDB.000.26 · POCKET SYLLABUS</text><g transform="translate(38,110) scale(.65)"><circle cx="160" cy="160" r="152" fill="#11130d" stroke="#F3E3C2" stroke-width="4"/><circle cx="160" cy="160" r="140" fill="none" stroke="#d8ff3e" stroke-width="2" stroke-dasharray="2 5"/><path d="M75 205q-44-37-23-99M245 205q44-37 23-99" fill="none" stroke="#d8ff3e" stroke-width="3"/><g fill="#d8ff3e"><path d="m57 145-17-10 2 20 16 8m-1 10-14-4 6 17 14 2m194-41 17-10-2 20-16 8m1 10 14-4-6 17-14 2"/></g><text x="160" y="58" fill="#F3E3C2" text-anchor="middle" font-family="Georgia,serif" font-size="14" letter-spacing="2">GDB UNIVERSITY</text><g fill="none" stroke="currentColor" color="#d8ff3e" stroke-width="5" stroke-linecap="round" stroke-linejoin="round"><circle cx="160" cy="138" r="51"/><circle cx="160" cy="138" r="31"/><circle cx="160" cy="138" r="8" fill="currentColor"/><path d="M81 124v28m-14-40v52m172-40v28m14-40v52"/></g><text x="160" y="230" fill="#F3E3C2" text-anchor="middle" font-family="Georgia,serif" font-weight="bold" font-size="25" letter-spacing="1">LOW END</text><text x="160" y="259" fill="#F3E3C2" text-anchor="middle" font-family="Georgia,serif" font-weight="bold" font-size="25" letter-spacing="1">STUDIES</text><text x="160" y="280" fill="#d8ff3e" text-anchor="middle" font-family="monospace" font-size="10" letter-spacing="1.5">LES-001 · GDB.000.26</text></g><g transform="translate(266,110) scale(.65)"><circle cx="160" cy="160" r="152" fill="#1539a4" stroke="#F3E3C2" stroke-width="4"/><circle cx="160" cy="160" r="140" fill="none" stroke="#ff6658" stroke-width="2" stroke-dasharray="2 5"/><path d="M75 205q-44-37-23-99M245 205q44-37 23-99" fill="none" stroke="#ff6658" stroke-width="3"/><g fill="#ff6658"><path d="m57 145-17-10 2 20 16 8m-1 10-14-4 6 17 14 2m194-41 17-10-2 20-16 8m1 10 14-4-6 17-14 2"/></g><text x="160" y="58" fill="#F3E3C2" text-anchor="middle" font-family="Georgia,serif" font-size="14" letter-spacing="2">GDB UNIVERSITY</text><g fill="none" stroke="currentColor" color="#ff6658" stroke-width="5" stroke-linecap="round" stroke-linejoin="round"><ellipse cx="160" cy="138" rx="81" ry="30" transform="rotate(-25 160 138)"/><circle cx="160" cy="138" r="32"/><path d="m145 149 15-27 15 27m-15-27v44M92 95l7-16 17 6m106 96-7 16-17-6"/><circle cx="231" cy="105" r="9" fill="currentColor"/></g><text x="160" y="230" fill="#F3E3C2" text-anchor="middle" font-family="Georgia,serif" font-weight="bold" font-size="25" letter-spacing="1">DANCEFLOOR</text><text x="160" y="259" fill="#F3E3C2" text-anchor="middle" font-family="Georgia,serif" font-weight="bold" font-size="25" letter-spacing="1">PHYSICS</text><text x="160" y="280" fill="#ff6658" text-anchor="middle" font-family="monospace" font-size="10" letter-spacing="1.5">DFP-002 · GDB.000.26</text></g><g transform="translate(494,110) scale(.65)"><circle cx="160" cy="160" r="152" fill="#071426" stroke="#F3E3C2" stroke-width="4"/><circle cx="160" cy="160" r="140" fill="none" stroke="#23daf2" stroke-width="2" stroke-dasharray="2 5"/><path d="M75 205q-44-37-23-99M245 205q44-37 23-99" fill="none" stroke="#23daf2" stroke-width="3"/><g fill="#23daf2"><path d="m57 145-17-10 2 20 16 8m-1 10-14-4 6 17 14 2m194-41 17-10-2 20-16 8m1 10 14-4-6 17-14 2"/></g><text x="160" y="58" fill="#F3E3C2" text-anchor="middle" font-family="Georgia,serif" font-size="14" letter-spacing="2">GDB UNIVERSITY</text><g fill="none" stroke="currentColor" color="#23daf2" stroke-width="5" stroke-linecap="round" stroke-linejoin="round"><rect x="105" y="83" width="110" height="110" rx="10"/><path d="M132 103v69m28-69v69m28-69v69"/><path d="M121 124h22m6 27h22m6-40h22" stroke-width="12"/><path d="M83 117H70v42h13m154-42h13v42h-13"/></g><text x="160" y="230" fill="#F3E3C2" text-anchor="middle" font-family="Georgia,serif" font-weight="bold" font-size="25" letter-spacing="1">CLUB</text><text x="160" y="259" fill="#F3E3C2" text-anchor="middle" font-family="Georgia,serif" font-weight="bold" font-size="25" letter-spacing="1">SCIENCE</text><text x="160" y="280" fill="#23daf2" text-anchor="middle" font-family="monospace" font-size="10" letter-spacing="1.5">CLS-003 · GDB.000.26</text></g><g transform="translate(722,110) scale(.65)"><circle cx="160" cy="160" r="152" fill="#731220" stroke="#F3E3C2" stroke-width="4"/><circle cx="160" cy="160" r="140" fill="none" stroke="#b58b49" stroke-width="2" stroke-dasharray="2 5"/><path d="M75 205q-44-37-23-99M245 205q44-37 23-99" fill="none" stroke="#b58b49" stroke-width="3"/><g fill="#b58b49"><path d="m57 145-17-10 2 20 16 8m-1 10-14-4 6 17 14 2m194-41 17-10-2 20-16 8m1 10 14-4-6 17-14 2"/></g><text x="160" y="58" fill="#F3E3C2" text-anchor="middle" font-family="Georgia,serif" font-size="14" letter-spacing="2">GDB UNIVERSITY</text><g fill="none" stroke="currentColor" color="#b58b49" stroke-width="5" stroke-linecap="round" stroke-linejoin="round"><circle cx="136" cy="115" r="17"/><circle cx="184" cy="115" r="17"/><path d="m103 183 14-39q19-16 38 6m62 33-14-39q-19-16-38 6M130 156l15 19h30l15-19"/><path d="m152 77 8-9 8 9-8 9z" fill="currentColor"/></g><text x="160" y="230" fill="#F3E3C2" text-anchor="middle" font-family="Georgia,serif" font-weight="bold" font-size="25" letter-spacing="1">RAVE</text><text x="160" y="259" fill="#F3E3C2" text-anchor="middle" font-family="Georgia,serif" font-weight="bold" font-size="25" letter-spacing="1">ETHICS</text><text x="160" y="280" fill="#b58b49" text-anchor="middle" font-family="monospace" font-size="10" letter-spacing="1.5">RVE-004 · GDB.000.26</text></g><g transform="rotate(-3 248 466)"><rect x="52" y="384" width="400" height="175" rx="22" fill="#731220"/><rect x="65" y="397" width="374" height="149" rx="15" fill="none" stroke="#F3E3C2" stroke-dasharray="3 5"/><text x="252" y="430" text-anchor="middle" fill="#F3E3C2" font-family="monospace" font-size="13" letter-spacing="2">GDBU / NIGHTCLUB</text><text x="252" y="484" text-anchor="middle" fill="#F3E3C2" font-family="Georgia,serif" font-size="48" font-weight="bold">2:17 A.M.</text><text x="252" y="520" text-anchor="middle" fill="#F3E3C2" font-family="monospace" font-size="14" letter-spacing="1">ATTENDANCE CONFIRMED</text></g><g transform="rotate(3 710 466)"><path d="M515 378h382v185H515v-30q20-10 0-20v-95q20-10 0-20z" fill="#F3E3C2" stroke="#731220" stroke-width="4"/><path d="M815 390v160" stroke="#731220" stroke-dasharray="4 6"/><text x="665" y="420" text-anchor="middle" fill="#731220" font-family="monospace" font-size="13" letter-spacing="2">GDB-000 / HALL PASS</text><text x="665" y="462" text-anchor="middle" fill="#731220" font-family="Georgia,serif" font-weight="bold" font-size="28">RETURN TO THE</text><text x="665" y="496" text-anchor="middle" fill="#731220" font-family="Georgia,serif" font-weight="bold" font-size="28">DANCE FLOOR</text><text x="665" y="533" text-anchor="middle" fill="#731220" font-family="monospace" font-size="12">BASSUS EST VITA</text><path d="M843 421v18m10-26v34m10-34v34m10-26v18" stroke="#731220" stroke-width="5"/><text x="854" y="522" text-anchor="middle" fill="#731220" font-family="monospace" font-size="13">.26</text></g><text x="45" y="622" fill="#731220" font-family="monospace" font-size="12" letter-spacing="2">FOUR MAJORS · ONE FLOOR · LEAVE NO FRIEND BEHIND</text></svg>